<svg id="Logo" xmlns="http://www.w3.org/2000/svg" viewBox="0 0 476.06 632.64"><defs><style>.cls-1{fill:#0d2880;fill-rule:evenodd;}.cls-2{fill:#fff;}</style></defs><path class="cls-1" d="M589.89,590.34V102.2a4.78,4.78,0,0,0-4.36-5L130.4,31.93h0s-4-.47-5.74,2.36L114,51.07l-.14,595.25,12.31,16.43a5.23,5.23,0,0,0,3.67,1.79c2,0,8.09-.95,8.09-.95L583,596.92h0c6.89-1.09,6.89-1.46,6.89-6.58Z" transform="translate(-113.83 -31.9)"/><g id="glanz"><polygon class="cls-2" points="17.69 625.42 22.63 621.59 19.77 87.25 17.69 81.61 17.69 625.42"/></g><polygon class="cls-2" points="18.03 6.39 21.44 11.69 462.81 70.2 466.85 69.31 18.03 6.39"/><g id="Deutsch"><path id="_2" data-name="2" class="cls-2" d="M194.1,437.35l.12-123.1,14.05-15.43L239,333.09l-.12,83.32L208.1,452.54l-14-15.19Zm36.5,38.37-14.1-14.36L247,425.25l82.75-4.13,26.68,30.81-12,15.24L230.6,475.72Zm146-318.26-.32,112.31-12.17,14L337.6,250.91l.2-79.41,26.7-30,12.1,15.94ZM337.45,315.21,239,314.55l-22.34-25,22.4-24.15,98.46,3.13,19.32,23.72-19.43,22.95ZM330.39,162l-82.87-7.18-30.65-37.41,14.13-14,114.3,12.81,12,15.8-26.92,30Z" transform="translate(-113.83 -31.9)"/><path id="_0" data-name="0" class="cls-2" d="M511.5,332.34l22-28.8,9.94,13L543,418.27l-10.05,13.9L511.2,404.09l.3-71.75ZM394.39,426.4l.34-110.81,11.42-13.9,24.9,30.88-.25,75.16-25.09,32.42L394.39,426.4Zm29.54,34.79L412.5,448.14l24.9-32.41,67.67-3.38L527,440.43,517,454.18l-93.1,7ZM544.1,173.11l-.47,102-10.06,12.69L511.82,258.1l.31-72,22-27.39,10,14.37ZM431.32,254.78l-25.11,30-11.34-14.37.34-111.16,11.44-13.4,24.93,33.57-.26,75.41Zm74.74-77.19-67.81-6L413.51,138l11.55-12.67L518.41,136l9.83,14.22-22.18,27.38Z" transform="translate(-113.83 -31.9)"/></g><path id="minuten" class="cls-2" d="M197.31,536.27c-2.42.25-3.31,1.73-3.31,3.76L194,598.22c0,2,.88,3.17,3.29,2.84l8.07-1.1a3.35,3.35,0,0,0,3.27-3.71l0-40.68a6.68,6.68,0,0,1,2.13-5.13c2.38-2.53,5.74-4.65,9-5,5.43-.59,7.16,2.45,7.15,9.06l-.05,39.31c0,2,.85,3.11,3.18,2.8l7.82-1.06a3.28,3.28,0,0,0,3.16-3.65L241,551.5a6.88,6.88,0,0,1,2.06-4.68c2.3-2.47,5.55-4.56,8.68-4.9,5.26-.58,6.92,2.42,6.91,8.91l-.06,38.69c0,2,.83,3.07,3.08,2.76l7.57-1a3.19,3.19,0,0,0,3.06-3.57l.08-42.55c0-10.46-5.63-17.3-15.72-16.26-7.3.76-12.86,4.54-16.86,7.93a1.57,1.57,0,0,1-2.31.24c-2.67-3.55-6.95-5.47-12.73-4.87-6.06.62-10.66,4-14.28,6.87-1.13.87-2.26.62-2.76-.59l-.38-1.09a2.68,2.68,0,0,0-3.13-1.81l-6.94.72Zm102.45-7.41c0-2-.8-3.15-3-2.93l-7.36.77c-2.19.22-3,1.52-3,3.57l-.1,55.52c0,1.94.8,3,3,2.73l7.36-1c2.17-.29,3-1.6,3-3.52l.11-55.14Zm-15-18c0,5.44,3.23,8.5,8.41,8s8.37-4.19,8.38-9.59-3.18-8.46-8.34-8-8.44,4.15-8.45,9.6m28.64,71.29c0,1.9.79,3,2.92,2.69l7.14-1c2.11-.29,2.89-1.57,2.9-3.46l.09-38.29a6.45,6.45,0,0,1,1.89-4.82,16.93,16.93,0,0,1,9.15-4.79c4.93-.54,7.64,2.21,7.63,8.41l-.1,37c0,1.87.76,2.93,2.82,2.65l6.91-.94c2-.28,2.8-1.54,2.8-3.4l.11-40.68c0-10-6.42-16.42-15.54-15.48-5.47.56-10.76,3.82-14,6.52a1.41,1.41,0,0,1-2.43-.57l-.33-1a2.37,2.37,0,0,0-2.78-1.72l-6.15.63c-2.13.22-2.92,1.62-2.93,3.52l-.12,54.75ZM412,517c0-1.92-.7-3-2.62-2.78l-6.51.68c-1.94.2-2.67,1.41-2.67,3.35L400.1,555a6.88,6.88,0,0,1-1.76,4.76,15.92,15.92,0,0,1-8.57,4.75c-4.67.61-7.26-2.14-7.25-8.22l.11-36.13c0-2-.72-3-2.71-2.81l-6.73.69c-2,.21-2.75,1.45-2.75,3.41l-.12,40.29c0,9.93,6.28,16.1,15.06,14.9,5.18-.71,10.25-4,13.13-6.57.93-.91,1.85-.69,2.25.38l.31,1.1a2.06,2.06,0,0,0,2.55,1.47l5.59-.76c2-.28,2.63-1.61,2.64-3.3L412,517Zm17.11,36.18c0,11.17,4.49,16.8,13.52,15.57,5-.68,8-2.63,12.13-5.51a2.7,2.7,0,0,0,1.16-3.9l-1.81-4.49c-.76-1.77-1.92-2.17-3.37-1.11-2.82,2-4.57,2.91-6.32,3.14-3,.4-3.9-2-3.88-6.48l.09-25.1c0-2.22,1-3.21,2.74-3.41l8.55-.94c1.64-.18,2.61-1.06,2.62-3.26l0-5.18c0-2.1-1-2.88-2.6-2.71l-8.55.89c-1.75.18-2.73-.49-2.72-2.83l0-8.67c0-1.88-.77-2.81-2.63-2.63l-6.22.59c-1.88.18-2.57,1.25-2.58,3.16l0,8.72c0,2.35-1.1,3.24-2.89,3.43l-3.79.39c-1.7.18-2.6,1.17-2.61,3.31l0,5.28c0,2.25.9,2.93,2.59,2.75l3.79-.42c1.79-.2,2.88.58,2.87,2.81l-.09,26.6Zm67.55-15a2.71,2.71,0,0,0,2.3-2.86l0-4.08c.07-17.51-5.4-26.82-17.55-25.56-11.95,1.23-20.26,10.54-20.34,31.83-.07,20.41,8.83,27.52,20.2,26,6.23-.85,11-4.41,14.74-7.28a3.21,3.21,0,0,0,1.4-3.94l-1.73-4.4c-.63-1.53-1.74-2-3.12-1.1-3.15,2.23-6.59,4.84-10.5,5.35-4.39.57-8.51-2.48-9.34-8.48-.18-1.72.48-2.57,1.61-2.7l22.31-2.75Zm-24.05-9.68c0-6.22,3.06-11.24,7.93-11.77,4.48-.49,7.44,3.18,7.41,10,0,1.52-.57,2.34-2,2.5l-11.5,1.35c-1.32.15-1.88-.55-1.88-2.07M508.17,556c0,1.71.62,2.69,2.33,2.45l5.76-.78c1.7-.23,2.33-1.38,2.34-3.08l.15-34.38a6.12,6.12,0,0,1,1.54-4.31,13,13,0,0,1,7.38-4.2c4-.44,6.16,2.06,6.13,7.64l-.14,33.23c0,1.68.6,2.65,2.26,2.42l5.59-.76c1.65-.22,2.26-1.35,2.27-3l.17-36.59c0-9-5.15-14.84-12.52-14.08-4.42.46-8.69,3.33-11.28,5.73-.81.72-1.61.49-2-.54l-.27-.92a1.94,1.94,0,0,0-2.23-1.58l-5,.51c-1.72.18-2.36,1.42-2.37,3.14l-.2,49.12Z" transform="translate(-113.83 -31.9)"/></svg>